ModelForces
version=1
nRows=4
nColumns=158
inDegrees=no

This file contains the forces exerted on a model during a simulation.

A force is a generalized force, meaning that it can be either a force (N) or a torque (Nm).

Units are S.I. units (second, meters, Newtons, ...)
Angles are in degrees.

endheader
time	glut_med1_r	glut_med2_r	glut_med3_r	glut_min1_r	glut_min2_r	glut_min3_r	semimem_r	semiten_r	bifemlh_r	bifemsh_r	sar_r	add_long_r	add_brev_r	add_mag1_r	add_mag2_r	add_mag3_r	tfl_r	pect_r	grac_r	glut_max1_r	glut_max2_r	glut_max3_r	iliacus_r	psoas_r	quad_fem_r	gem_r	peri_r	rect_fem_r	vas_med_r	vas_int_r	vas_lat_r	med_gas_r	lat_gas_r	soleus_r	tib_post_r	flex_dig_r	flex_hal_r	tib_ant_r	per_brev_r	per_long_r	per_tert_r	ext_dig_r	ext_hal_r	glut_med1_l	glut_med2_l	glut_med3_l	glut_min1_l	glut_min2_l	glut_min3_l	semimem_l	semiten_l	bifemlh_l	bifemsh_l	sar_l	add_long_l	add_brev_l	add_mag1_l	add_mag2_l	add_mag3_l	tfl_l	pect_l	grac_l	glut_max1_l	glut_max2_l	glut_max3_l	iliacus_l	psoas_l	quad_fem_l	gem_l	peri_l	rect_fem_l	vas_med_l	vas_int_l	vas_lat_l	med_gas_l	lat_gas_l	soleus_l	tib_post_l	flex_dig_l	flex_hal_l	tib_ant_l	per_brev_l	per_long_l	per_tert_l	ext_dig_l	ext_hal_l	ercspn_r	ercspn_l	intobl_r	intobl_l	extobl_r	extobl_l	femur_lat_meniscii_r.femur_lat_r.force.X	femur_lat_meniscii_r.femur_lat_r.force.Y	femur_lat_meniscii_r.femur_lat_r.force.Z	femur_lat_meniscii_r.femur_lat_r.torque.X	femur_lat_meniscii_r.femur_lat_r.torque.Y	femur_lat_meniscii_r.femur_lat_r.torque.Z	femur_lat_meniscii_r.meniscus_lat_r.force.X	femur_lat_meniscii_r.meniscus_lat_r.force.Y	femur_lat_meniscii_r.meniscus_lat_r.force.Z	femur_lat_meniscii_r.meniscus_lat_r.torque.X	femur_lat_meniscii_r.meniscus_lat_r.torque.Y	femur_lat_meniscii_r.meniscus_lat_r.torque.Z	femur_med_meniscii_r.femur_med_r.force.X	femur_med_meniscii_r.femur_med_r.force.Y	femur_med_meniscii_r.femur_med_r.force.Z	femur_med_meniscii_r.femur_med_r.torque.X	femur_med_meniscii_r.femur_med_r.torque.Y	femur_med_meniscii_r.femur_med_r.torque.Z	femur_med_meniscii_r.meniscus_med_r.force.X	femur_med_meniscii_r.meniscus_med_r.force.Y	femur_med_meniscii_r.meniscus_med_r.force.Z	femur_med_meniscii_r.meniscus_med_r.torque.X	femur_med_meniscii_r.meniscus_med_r.torque.Y	femur_med_meniscii_r.meniscus_med_r.torque.Z	femur_med_tibia_r.tibia_upper_r.force.X	femur_med_tibia_r.tibia_upper_r.force.Y	femur_med_tibia_r.tibia_upper_r.force.Z	femur_med_tibia_r.tibia_upper_r.torque.X	femur_med_tibia_r.tibia_upper_r.torque.Y	femur_med_tibia_r.tibia_upper_r.torque.Z	femur_med_tibia_r.femur_med_r.force.X	femur_med_tibia_r.femur_med_r.force.Y	femur_med_tibia_r.femur_med_r.force.Z	femur_med_tibia_r.femur_med_r.torque.X	femur_med_tibia_r.femur_med_r.torque.Y	femur_med_tibia_r.femur_med_r.torque.Z	femur_lat_tibia_r.tibia_upper_r.force.X	femur_lat_tibia_r.tibia_upper_r.force.Y	femur_lat_tibia_r.tibia_upper_r.force.Z	femur_lat_tibia_r.tibia_upper_r.torque.X	femur_lat_tibia_r.tibia_upper_r.torque.Y	femur_lat_tibia_r.tibia_upper_r.torque.Z	femur_lat_tibia_r.femur_lat_r.force.X	femur_lat_tibia_r.femur_lat_r.force.Y	femur_lat_tibia_r.femur_lat_r.force.Z	femur_lat_tibia_r.femur_lat_r.torque.X	femur_lat_tibia_r.femur_lat_r.torque.Y	femur_lat_tibia_r.femur_lat_r.torque.Z	aACL_R	pACL_R	aPCL_R	pPCL_R	aMCL_R	mMCL_R	pMCL_R	aLCL_R	mLCL_R	pLCL_R	aPCL_L	pPCL_L	aMCL_L	aLCL_L	ground_prescribedForce_-20_fx	ground_prescribedForce_-20_fy	ground_prescribedForce_-20_fz
      0.00000000	     37.48087652	     28.28714471	     30.25598133	     13.28977762	     14.47626353	     15.91713841	     27.29702911	     19.90187953	     31.52767484	     34.15572373	      7.54258044	     27.93927808	     20.68957741	     14.51222487	     12.16230296	     19.66717628	     12.34061030	     11.16605282	      7.61343551	     18.12681708	     27.55933735	     20.56469162	     63.94906620	     55.74758807	     18.09791099	      9.16719286	     20.03897647	     56.37808771	     41.95383285	     43.73481824	     56.47199218	     51.62321949	     26.32603921	    152.72720615	     92.44658902	     14.93332009	     15.26895791	     41.82851940	     21.62523106	     46.40594865	      8.86060096	     25.04818486	      7.96045570	     37.48087652	     28.28714471	     30.25598133	     13.28977762	     14.47626353	     15.91713841	     42.06683902	     20.39635155	     37.67631238	     36.01822118	      7.59254209	     27.93927808	     20.68957741	     14.51222487	     12.16230296	     19.66717628	     12.58139899	     11.16605282	      7.78214370	     18.12681708	     27.55933735	     20.56469162	     63.94906620	     55.74758807	     18.09791099	      9.16719286	     20.03897647	     52.59637061	     32.48786114	     37.22481259	     39.87514307	     67.71424671	     31.64857027	    152.72720615	     92.44658902	     14.93332009	     15.26895791	     41.82851940	     21.62523106	     46.40594865	      8.86060096	     25.04818486	      7.96045570	    124.99446086	    124.99446086	     44.97041513	     44.97041513	     60.98287244	     60.98287244	     63.89009026	     93.04530493	      4.38456882	     -4.17015486	      1.63908493	     26.44627124	    -63.89009026	    -93.04530493	     -4.38456882	      2.94558193	     -1.97248809	     -1.52713373	     -2.08901085	     19.17741008	     -0.55505736	      0.60314242	      0.04972786	     -0.57895647	      2.08901085	    -19.17741008	      0.55505736	     -0.29767184	     -0.03667662	     -0.11978637	    -72.76212829	   -191.84319550	     55.90917589	     -4.44275879	      0.91833491	     -2.63834593	     72.76212829	    191.84319550	    -55.90917589	     26.75623922	     -0.97998716	     31.46632873	      0.00000000	      0.00000000	      0.00000000	      0.00000000	      0.00000000	      0.00000000	      0.00000000	      0.00000000	      0.00000000	      0.00000000	      0.00000000	      0.00000000	     22.16538504	     19.53263151	      0.56117660	     37.10792893	      0.00000000	      0.00000000	      2.06278594	      0.00000000	      0.00000000	      0.00000000	      0.00000000	      0.00000000	      0.00000001	      0.00000000	    103.36618800	    -37.62220000	      0.00000000
      0.00114301	     37.46757388	     28.26512770	     30.23629129	     13.26362089	     14.46138037	     15.91121546	     26.85758132	     19.57240082	     31.22011378	     32.86017512	      7.24273661	     27.92138936	     20.63006110	     14.50105448	     12.15559872	     19.66163915	     12.20891931	     11.14946251	      7.37137026	     18.11506154	     27.54174576	     20.55363017	     63.91871578	     55.73004954	     18.07817765	      9.16445815	     20.03657224	     55.65659387	     40.26299985	     42.08883372	     54.64863539	     50.16609744	     25.61507791	    149.06494914	     92.24081019	     15.00707174	     15.30404488	     42.98119820	     21.38428751	     46.09620768	      9.10024921	     25.21854001	      8.03399316	     37.46757388	     28.26512770	     30.23629129	     13.26362089	     14.46138037	     15.91121546	     42.06089065	     20.38833590	     37.66967322	     35.98011050	      7.57488492	     27.92138936	     20.63006110	     14.50105448	     12.15559872	     19.66163915	     12.58000682	     11.14946251	      7.77176551	     18.11506154	     27.54174576	     20.55363017	     63.91871578	     55.73004954	     18.07817765	      9.16445815	     20.03657224	     52.58631545	     32.47328593	     37.21034869	     39.86042017	     67.70838969	     31.64578403	    152.70899544	     92.44199635	     14.93423551	     15.26957093	     41.81905573	     21.62183306	     46.40255107	      8.85702155	     25.04175746	      7.95787950	    124.76552333	    124.76552333	     44.94818645	     44.94818645	     60.95885936	     60.95885936	     64.62124569	    102.82494645	     22.12906398	    -11.88078430	      1.74479935	     26.70792950	    -64.62124569	   -102.82494645	    -22.12906398	      3.91521528	     -2.17260125	     -1.45906672	     -1.69094457	     21.79054470	      2.47668448	     -0.63759660	     -0.00679559	     -0.36758843	      1.69094457	    -21.79054470	     -2.47668448	     -0.20423643	      0.00202399	     -0.16518725	    -84.07705651	   -227.98147638	     50.48058885	     -4.61194410	      1.02932292	     -3.05271361	     84.07705651	    227.98147638	    -50.48058885	     25.01743175	     -1.17173654	     36.39554316	      0.00000000	      0.00000000	      0.00000000	      0.00000000	      0.00000000	      0.00000000	      0.00000000	      0.00000000	      0.00000000	      0.00000000	      0.00000000	      0.00000000	      5.77208444	      1.04232383	     -5.04959725	     21.10136336	      0.00000000	      0.00000000	    -13.35880687	      0.00000000	      0.00000000	      0.00000000	      0.00000000	      0.00000000	      0.00000001	      0.00000000	    103.36618800	    -37.62220000	      0.00000000
      0.00312261	     37.38287373	     28.13154864	     30.11507810	     13.12502552	     14.37383468	     15.87357288	     25.51227905	     18.61657899	     30.45900538	     30.27745985	      6.72941713	     27.81114641	     20.34564740	     14.43322816	     12.11386438	     19.62609014	     11.76477478	     11.05661440	      6.84859652	     18.04269123	     27.43331982	     20.48466601	     63.73037510	     55.61796510	     17.96264740	      9.14701581	     20.02084717	     53.51911210	     35.36679206	     37.28762070	     49.16285049	     44.00841664	     22.59288751	    130.35424452	     90.96617391	     15.45023654	     15.53351758	     49.40987937	     20.21619741	     44.52130511	     10.45609447	     26.07101919	      8.39009475	     37.38287373	     28.13154864	     30.11507810	     13.12502552	     14.37383468	     15.87357288	     42.02209096	     20.33751178	     37.62653182	     35.75615283	      7.48505629	     27.81114641	     20.34564740	     14.43322816	     12.11386438	     19.62609014	     12.57090621	     11.05661440	      7.71266520	     18.04269123	     27.43331982	     20.48466601	     63.73037510	     55.61796510	     17.96264740	      9.14701581	     20.02084717	     52.52108349	     32.38149343	     37.11862941	     39.76685891	     67.66993505	     31.62749294	    152.58987368	     92.41177147	     14.93992891	     15.27327417	     41.75790495	     21.59969808	     46.38020466	      8.83438043	     25.00045537	      7.94140059	    123.53348476	    123.53348476	     44.80886591	     44.80886591	     60.80937497	     60.80937497	     68.83019610	    104.51500263	     37.70147289	    -18.46016381	      1.93488967	     28.46798763	    -68.83019610	   -104.51500263	    -37.70147289	      4.53553828	     -2.45508152	     -1.60424781	     -2.01193282	     26.01665141	      6.27931596	     -2.16731461	     -0.05951184	     -0.44041589	      2.01193282	    -26.01665141	     -6.27931596	     -0.11147781	      0.03611513	     -0.19278574	   -109.01372882	   -310.09390359	     53.22569134	     -5.66576603	      1.31167920	     -4.04396835	    109.01372882	    310.09390359	    -53.22569134	     27.47185030	     -1.54493461	     47.34695640	      0.00000000	      0.00000000	      0.00000000	      0.00000000	      0.00000000	      0.00000000	      0.00000000	      0.00000000	      0.00000000	      0.00000000	      0.00000000	      0.00000000	      0.59828072	     -6.44545574	     -1.24111294	     29.00186226	      0.00000000	      0.00000000	     -3.60566951	      0.00000000	      0.00000000	      0.00000000	      0.00000000	      0.00000000	      0.00000001	      0.00000000	    103.36618800	    -37.62220000	      0.00000000
      0.00510220	     37.22333397	     27.89547804	     29.89678151	     12.91641482	     14.22503288	     15.80284982	     24.88813111	     18.24160750	     30.56278543	     30.76082520	      6.76256823	     27.61232187	     19.96015948	     14.31322099	     12.03758678	     19.55836829	     11.44816095	     10.90795114	      6.82595423	     17.91232821	     27.23771477	     20.35836724	     63.38754789	     55.40578157	     17.76741686	      9.11408266	     19.99010981	     52.69329480	     33.26068937	     35.16791844	     46.51233915	     37.07272426	     19.14092447	    104.72232798	     88.56945195	     16.19120673	     15.93598314	     59.33653189	     18.76562942	     42.37925007	     12.50839865	     27.30134745	      8.86501463	     37.22333397	     27.89547804	     29.89678151	     12.91641482	     14.22503288	     15.80284982	     41.94653649	     20.24232351	     37.54296693	     35.37593266	      7.35555697	     27.61232187	     19.96015948	     14.31322099	     12.03758678	     19.55836829	     12.55313094	     10.90795114	      7.61608778	     17.91232821	     27.23771477	     20.35836724	     63.38754789	     55.40578157	     17.76741686	      9.11408266	     19.99010981	     52.39501893	     32.21108958	     36.94679013	     39.59104773	     67.59436549	     31.59155440	    152.35699236	     92.35217443	     14.95014399	     15.27957100	     41.64037751	     21.55667697	     46.33618212	      8.79211202	     24.92191086	      7.91026985	    121.64711750	    121.64711750	     44.55195577	     44.55195577	     60.53610992	     60.53610992	     70.81507640	     98.28951431	     42.61571422	    -20.34983641	      1.99982549	     29.31584553	    -70.81507640	    -98.28951431	    -42.61571422	      4.50003358	     -2.54204941	     -1.72743253	     -2.14032550	     27.52756355	      7.77830601	     -2.76781866	     -0.07890272	     -0.47512268	      2.14032550	    -27.52756355	     -7.77830601	     -0.08187341	      0.04789031	     -0.19926224	    -92.40583283	   -258.50600541	     42.33204962	     -4.68469089	      1.12222962	     -3.45731827	     92.40583283	    258.50600541	    -42.33204962	     22.03541058	     -1.31771652	     40.13811168	      0.00000000	      0.00000000	      0.00000000	      0.00000000	      0.00000000	      0.00000000	      0.00000000	      0.00000000	      0.00000000	      0.00000000	      0.00000000	      0.00000000	      4.24406971	     -3.93130033	      3.11842910	     41.96666867	      0.00000000	      0.00000000	     10.43114501	      0.00000000	      0.00000000	      0.00000000	      0.00000000	      0.00000000	      0.00000001	      0.00000000	    103.36618800	    -37.62220000	      0.00000000
